<?xml version="1.0" encoding="UTF-8" standalone="no"?>
<!DOCTYPE svg PUBLIC "-//W3C//DTD SVG 1.1//EN"
 "http://www.w3.org/Graphics/SVG/1.1/DTD/svg11.dtd">
<!-- Generated by graphviz version 2.47.2 (20210527.0053)
 -->
<!-- Pages: 1 -->
<svg width="1753pt" height="404pt"
 viewBox="0.00 0.00 1752.50 404.00" xmlns="http://www.w3.org/2000/svg" xmlns:xlink="http://www.w3.org/1999/xlink">
<g id="graph0" class="graph" transform="scale(1 1) rotate(0) translate(4 400)">
<polygon fill="white" stroke="transparent" points="-4,4 -4,-400 1748.5,-400 1748.5,4 -4,4"/>
<!-- [root] aws_eip.lb (expand) -->
<g id="node1" class="node">
<title>[root] aws_eip.lb (expand)</title>
<polygon fill="none" stroke="black" points="162,-180 85,-180 85,-144 162,-144 162,-180"/>
<text text-anchor="middle" x="123.5" y="-158.3" font-family="Times New Roman,serif" font-size="14.00">aws_eip.lb</text>
</g>
<!-- [root] aws_instance.myec2 (expand) -->
<g id="node2" class="node">
<title>[root] aws_instance.myec2 (expand)</title>
<polygon fill="none" stroke="black" points="252,-108 121,-108 121,-72 252,-72 252,-108"/>
<text text-anchor="middle" x="186.5" y="-86.3" font-family="Times New Roman,serif" font-size="14.00">aws_instance.myec2</text>
</g>
<!-- [root] aws_eip.lb (expand)&#45;&gt;[root] aws_instance.myec2 (expand) -->
<g id="edge1" class="edge">
<title>[root] aws_eip.lb (expand)&#45;&gt;[root] aws_instance.myec2 (expand)</title>
<path fill="none" stroke="black" d="M139.07,-143.7C146.7,-135.22 156.02,-124.86 164.38,-115.58"/>
<polygon fill="black" stroke="black" points="167.02,-117.88 171.11,-108.1 161.81,-113.2 167.02,-117.88"/>
</g>
<!-- [root] provider[&quot;registry.terraform.io/hashicorp/aws&quot;] -->
<g id="node6" class="node">
<title>[root] provider[&quot;registry.terraform.io/hashicorp/aws&quot;]</title>
<polygon fill="none" stroke="black" points="311.5,-36 54.27,-18 311.5,0 568.73,-18 311.5,-36"/>
<text text-anchor="middle" x="311.5" y="-14.3" font-family="Times New Roman,serif" font-size="14.00">provider[&quot;registry.terraform.io/hashicorp/aws&quot;]</text>
</g>
<!-- [root] aws_instance.myec2 (expand)&#45;&gt;[root] provider[&quot;registry.terraform.io/hashicorp/aws&quot;] -->
<g id="edge2" class="edge">
<title>[root] aws_instance.myec2 (expand)&#45;&gt;[root] provider[&quot;registry.terraform.io/hashicorp/aws&quot;]</title>
<path fill="none" stroke="black" d="M217.08,-71.88C234.72,-62 257,-49.52 275.48,-39.17"/>
<polygon fill="black" stroke="black" points="277.2,-42.22 284.22,-34.28 273.78,-36.11 277.2,-42.22"/>
</g>
<!-- [root] aws_security_group.allow_tls (expand) -->
<g id="node3" class="node">
<title>[root] aws_security_group.allow_tls (expand)</title>
<polygon fill="none" stroke="black" points="183,-252 0,-252 0,-216 183,-216 183,-252"/>
<text text-anchor="middle" x="91.5" y="-230.3" font-family="Times New Roman,serif" font-size="14.00">aws_security_group.allow_tls</text>
</g>
<!-- [root] aws_security_group.allow_tls (expand)&#45;&gt;[root] aws_eip.lb (expand) -->
<g id="edge3" class="edge">
<title>[root] aws_security_group.allow_tls (expand)&#45;&gt;[root] aws_eip.lb (expand)</title>
<path fill="none" stroke="black" d="M99.41,-215.7C103.05,-207.73 107.45,-198.1 111.49,-189.26"/>
<polygon fill="black" stroke="black" points="114.71,-190.65 115.68,-180.1 108.34,-187.74 114.71,-190.65"/>
</g>
<!-- [root] module.EC2.aws_instance.EC2&#45;lab1 (orphan) -->
<g id="node4" class="node">
<title>[root] module.EC2.aws_instance.EC2&#45;lab1 (orphan)</title>
<polygon fill="none" stroke="black" points="422,-252 201,-252 201,-216 422,-216 422,-252"/>
<text text-anchor="middle" x="311.5" y="-230.3" font-family="Times New Roman,serif" font-size="14.00">module.EC2.aws_instance.EC2&#45;lab1</text>
</g>
<!-- [root] module.EC2.aws_instance.EC2&#45;lab1 (orphan)&#45;&gt;[root] provider[&quot;registry.terraform.io/hashicorp/aws&quot;] -->
<g id="edge14" class="edge">
<title>[root] module.EC2.aws_instance.EC2&#45;lab1 (orphan)&#45;&gt;[root] provider[&quot;registry.terraform.io/hashicorp/aws&quot;]</title>
<path fill="none" stroke="black" d="M311.5,-215.85C311.5,-178.83 311.5,-91.18 311.5,-46.39"/>
<polygon fill="black" stroke="black" points="315,-46.23 311.5,-36.23 308,-46.23 315,-46.23"/>
</g>
<!-- [root] module.VPC.aws_vpc.vpc1 (orphan) -->
<g id="node5" class="node">
<title>[root] module.VPC.aws_vpc.vpc1 (orphan)</title>
<polygon fill="none" stroke="black" points="615,-252 440,-252 440,-216 615,-216 615,-252"/>
<text text-anchor="middle" x="527.5" y="-230.3" font-family="Times New Roman,serif" font-size="14.00">module.VPC.aws_vpc.vpc1</text>
</g>
<!-- [root] module.VPC.aws_vpc.vpc1 (orphan)&#45;&gt;[root] provider[&quot;registry.terraform.io/hashicorp/aws&quot;] -->
<g id="edge15" class="edge">
<title>[root] module.VPC.aws_vpc.vpc1 (orphan)&#45;&gt;[root] provider[&quot;registry.terraform.io/hashicorp/aws&quot;]</title>
<path fill="none" stroke="black" d="M510.19,-215.85C471.66,-177.67 378.78,-85.65 335.03,-42.31"/>
<polygon fill="black" stroke="black" points="337.27,-39.61 327.71,-35.06 332.35,-44.58 337.27,-39.61"/>
</g>
<!-- [root] var.vpc_azs -->
<g id="node7" class="node">
<title>[root] var.vpc_azs</title>
<polygon fill="none" stroke="black" points="1632.5,-252 1554.5,-252 1554.5,-216 1638.5,-216 1638.5,-246 1632.5,-252"/>
<polyline fill="none" stroke="black" points="1632.5,-252 1632.5,-246 "/>
<polyline fill="none" stroke="black" points="1638.5,-246 1632.5,-246 "/>
<text text-anchor="middle" x="1596.5" y="-230.3" font-family="Times New Roman,serif" font-size="14.00">var.vpc_azs</text>
</g>
<!-- [root] var.vpc_cidr -->
<g id="node8" class="node">
<title>[root] var.vpc_cidr</title>
<polygon fill="none" stroke="black" points="1738.5,-252 1656.5,-252 1656.5,-216 1744.5,-216 1744.5,-246 1738.5,-252"/>
<polyline fill="none" stroke="black" points="1738.5,-252 1738.5,-246 "/>
<polyline fill="none" stroke="black" points="1744.5,-246 1738.5,-246 "/>
<text text-anchor="middle" x="1700.5" y="-230.3" font-family="Times New Roman,serif" font-size="14.00">var.vpc_cidr</text>
</g>
<!-- [root] var.vpc_name -->
<g id="node9" class="node">
<title>[root] var.vpc_name</title>
<polygon fill="none" stroke="black" points="722,-252 633,-252 633,-216 728,-216 728,-246 722,-252"/>
<polyline fill="none" stroke="black" points="722,-252 722,-246 "/>
<polyline fill="none" stroke="black" points="728,-246 722,-246 "/>
<text text-anchor="middle" x="680.5" y="-230.3" font-family="Times New Roman,serif" font-size="14.00">var.vpc_name</text>
</g>
<!-- [root] var.vpc_private_subnets -->
<g id="node10" class="node">
<title>[root] var.vpc_private_subnets</title>
<polygon fill="none" stroke="black" points="894.5,-252 746.5,-252 746.5,-216 900.5,-216 900.5,-246 894.5,-252"/>
<polyline fill="none" stroke="black" points="894.5,-252 894.5,-246 "/>
<polyline fill="none" stroke="black" points="900.5,-246 894.5,-246 "/>
<text text-anchor="middle" x="823.5" y="-230.3" font-family="Times New Roman,serif" font-size="14.00">var.vpc_private_subnets</text>
</g>
<!-- [root] var.vpc_public_subnets -->
<g id="node11" class="node">
<title>[root] var.vpc_public_subnets</title>
<polygon fill="none" stroke="black" points="1064,-252 919,-252 919,-216 1070,-216 1070,-246 1064,-252"/>
<polyline fill="none" stroke="black" points="1064,-252 1064,-246 "/>
<polyline fill="none" stroke="black" points="1070,-246 1064,-246 "/>
<text text-anchor="middle" x="994.5" y="-230.3" font-family="Times New Roman,serif" font-size="14.00">var.vpc_public_subnets</text>
</g>
<!-- [root] meta.count&#45;boundary (EachMode fixup) -->
<g id="node12" class="node">
<title>[root] meta.count&#45;boundary (EachMode fixup)</title>
<ellipse fill="none" stroke="black" cx="823.5" cy="-306" rx="180.87" ry="18"/>
<text text-anchor="middle" x="823.5" y="-302.3" font-family="Times New Roman,serif" font-size="14.00">[root] meta.count&#45;boundary (EachMode fixup)</text>
</g>
<!-- [root] meta.count&#45;boundary (EachMode fixup)&#45;&gt;[root] aws_security_group.allow_tls (expand) -->
<g id="edge4" class="edge">
<title>[root] meta.count&#45;boundary (EachMode fixup)&#45;&gt;[root] aws_security_group.allow_tls (expand)</title>
<path fill="none" stroke="black" d="M683.33,-294.64C531.81,-283.2 298.86,-264.85 193.14,-252.13"/>
<polygon fill="black" stroke="black" points="193.36,-248.63 183.01,-250.88 192.5,-255.58 193.36,-248.63"/>
</g>
<!-- [root] meta.count&#45;boundary (EachMode fixup)&#45;&gt;[root] module.EC2.aws_instance.EC2&#45;lab1 (orphan) -->
<g id="edge6" class="edge">
<title>[root] meta.count&#45;boundary (EachMode fixup)&#45;&gt;[root] module.EC2.aws_instance.EC2&#45;lab1 (orphan)</title>
<path fill="none" stroke="black" d="M719.63,-291.22C642.86,-280.98 535.49,-266.55 432.03,-252.21"/>
<polygon fill="black" stroke="black" points="432.42,-248.73 422.03,-250.82 431.45,-255.66 432.42,-248.73"/>
</g>
<!-- [root] meta.count&#45;boundary (EachMode fixup)&#45;&gt;[root] module.VPC.aws_vpc.vpc1 (orphan) -->
<g id="edge8" class="edge">
<title>[root] meta.count&#45;boundary (EachMode fixup)&#45;&gt;[root] module.VPC.aws_vpc.vpc1 (orphan)</title>
<path fill="none" stroke="black" d="M756.7,-289.2C713.1,-278.89 655.87,-265.36 609.51,-254.39"/>
<polygon fill="black" stroke="black" points="610.02,-250.92 599.49,-252.02 608.41,-257.73 610.02,-250.92"/>
</g>
<!-- [root] meta.count&#45;boundary (EachMode fixup)&#45;&gt;[root] var.vpc_azs -->
<g id="edge9" class="edge">
<title>[root] meta.count&#45;boundary (EachMode fixup)&#45;&gt;[root] var.vpc_azs</title>
<path fill="none" stroke="black" d="M1003.56,-304.14C1148.14,-300.55 1356.01,-288.88 1544.6,-251.88"/>
<polygon fill="black" stroke="black" points="1545.29,-255.31 1554.42,-249.92 1543.93,-248.44 1545.29,-255.31"/>
</g>
<!-- [root] meta.count&#45;boundary (EachMode fixup)&#45;&gt;[root] var.vpc_cidr -->
<g id="edge10" class="edge">
<title>[root] meta.count&#45;boundary (EachMode fixup)&#45;&gt;[root] var.vpc_cidr</title>
<path fill="none" stroke="black" d="M990.53,-299.11C1189.15,-291.28 1509.89,-275.8 1646.55,-251.84"/>
<polygon fill="black" stroke="black" points="1647.26,-255.26 1656.46,-250.02 1646,-248.38 1647.26,-255.26"/>
</g>
<!-- [root] meta.count&#45;boundary (EachMode fixup)&#45;&gt;[root] var.vpc_name -->
<g id="edge11" class="edge">
<title>[root] meta.count&#45;boundary (EachMode fixup)&#45;&gt;[root] var.vpc_name</title>
<path fill="none" stroke="black" d="M789.25,-288.23C769.9,-278.76 745.51,-266.82 724.73,-256.65"/>
<polygon fill="black" stroke="black" points="725.99,-253.37 715.47,-252.12 722.91,-259.66 725.99,-253.37"/>
</g>
<!-- [root] meta.count&#45;boundary (EachMode fixup)&#45;&gt;[root] var.vpc_private_subnets -->
<g id="edge12" class="edge">
<title>[root] meta.count&#45;boundary (EachMode fixup)&#45;&gt;[root] var.vpc_private_subnets</title>
<path fill="none" stroke="black" d="M823.5,-287.7C823.5,-279.98 823.5,-270.71 823.5,-262.11"/>
<polygon fill="black" stroke="black" points="827,-262.1 823.5,-252.1 820,-262.1 827,-262.1"/>
</g>
<!-- [root] meta.count&#45;boundary (EachMode fixup)&#45;&gt;[root] var.vpc_public_subnets -->
<g id="edge13" class="edge">
<title>[root] meta.count&#45;boundary (EachMode fixup)&#45;&gt;[root] var.vpc_public_subnets</title>
<path fill="none" stroke="black" d="M864.02,-288.41C887.76,-278.7 917.95,-266.33 943.32,-255.95"/>
<polygon fill="black" stroke="black" points="944.85,-259.11 952.78,-252.08 942.2,-252.63 944.85,-259.11"/>
</g>
<!-- [root] module.EC2 (close) -->
<g id="node13" class="node">
<title>[root] module.EC2 (close)</title>
<ellipse fill="none" stroke="black" cx="1194.5" cy="-234" rx="106.68" ry="18"/>
<text text-anchor="middle" x="1194.5" y="-230.3" font-family="Times New Roman,serif" font-size="14.00">[root] module.EC2 (close)</text>
</g>
<!-- [root] meta.count&#45;boundary (EachMode fixup)&#45;&gt;[root] module.EC2 (close) -->
<g id="edge5" class="edge">
<title>[root] meta.count&#45;boundary (EachMode fixup)&#45;&gt;[root] module.EC2 (close)</title>
<path fill="none" stroke="black" d="M904,-289.81C966.89,-277.95 1053.77,-261.55 1116.11,-249.79"/>
<polygon fill="black" stroke="black" points="1117.11,-253.16 1126.29,-247.87 1115.81,-246.29 1117.11,-253.16"/>
</g>
<!-- [root] module.VPC (close) -->
<g id="node14" class="node">
<title>[root] module.VPC (close)</title>
<ellipse fill="none" stroke="black" cx="1427.5" cy="-234" rx="108.58" ry="18"/>
<text text-anchor="middle" x="1427.5" y="-230.3" font-family="Times New Roman,serif" font-size="14.00">[root] module.VPC (close)</text>
</g>
<!-- [root] meta.count&#45;boundary (EachMode fixup)&#45;&gt;[root] module.VPC (close) -->
<g id="edge7" class="edge">
<title>[root] meta.count&#45;boundary (EachMode fixup)&#45;&gt;[root] module.VPC (close)</title>
<path fill="none" stroke="black" d="M946.74,-292.82C1045.28,-282.79 1186.9,-267.7 1310.5,-252 1320.12,-250.78 1330.18,-249.43 1340.18,-248.04"/>
<polygon fill="black" stroke="black" points="1340.73,-251.5 1350.14,-246.64 1339.75,-244.56 1340.73,-251.5"/>
</g>
<!-- [root] provider[&quot;registry.terraform.io/hashicorp/aws&quot;] (close) -->
<g id="node15" class="node">
<title>[root] provider[&quot;registry.terraform.io/hashicorp/aws&quot;] (close)</title>
<ellipse fill="none" stroke="black" cx="352.5" cy="-306" rx="232.86" ry="18"/>
<text text-anchor="middle" x="352.5" y="-302.3" font-family="Times New Roman,serif" font-size="14.00">[root] provider[&quot;registry.terraform.io/hashicorp/aws&quot;] (close)</text>
</g>
<!-- [root] provider[&quot;registry.terraform.io/hashicorp/aws&quot;] (close)&#45;&gt;[root] aws_security_group.allow_tls (expand) -->
<g id="edge16" class="edge">
<title>[root] provider[&quot;registry.terraform.io/hashicorp/aws&quot;] (close)&#45;&gt;[root] aws_security_group.allow_tls (expand)</title>
<path fill="none" stroke="black" d="M291.31,-288.59C253.45,-278.43 204.62,-265.34 164.71,-254.64"/>
<polygon fill="black" stroke="black" points="165.6,-251.25 155.03,-252.04 163.79,-258.01 165.6,-251.25"/>
</g>
<!-- [root] provider[&quot;registry.terraform.io/hashicorp/aws&quot;] (close)&#45;&gt;[root] module.EC2.aws_instance.EC2&#45;lab1 (orphan) -->
<g id="edge17" class="edge">
<title>[root] provider[&quot;registry.terraform.io/hashicorp/aws&quot;] (close)&#45;&gt;[root] module.EC2.aws_instance.EC2&#45;lab1 (orphan)</title>
<path fill="none" stroke="black" d="M342.37,-287.7C337.65,-279.64 331.94,-269.89 326.72,-260.98"/>
<polygon fill="black" stroke="black" points="329.59,-258.96 321.52,-252.1 323.55,-262.5 329.59,-258.96"/>
</g>
<!-- [root] provider[&quot;registry.terraform.io/hashicorp/aws&quot;] (close)&#45;&gt;[root] module.VPC.aws_vpc.vpc1 (orphan) -->
<g id="edge18" class="edge">
<title>[root] provider[&quot;registry.terraform.io/hashicorp/aws&quot;] (close)&#45;&gt;[root] module.VPC.aws_vpc.vpc1 (orphan)</title>
<path fill="none" stroke="black" d="M394.42,-288.23C418.63,-278.55 449.29,-266.28 475.09,-255.97"/>
<polygon fill="black" stroke="black" points="476.72,-259.08 484.71,-252.12 474.12,-252.58 476.72,-259.08"/>
</g>
<!-- [root] root -->
<g id="node16" class="node">
<title>[root] root</title>
<ellipse fill="none" stroke="black" cx="567.5" cy="-378" rx="49.29" ry="18"/>
<text text-anchor="middle" x="567.5" y="-374.3" font-family="Times New Roman,serif" font-size="14.00">[root] root</text>
</g>
<!-- [root] root&#45;&gt;[root] meta.count&#45;boundary (EachMode fixup) -->
<g id="edge19" class="edge">
<title>[root] root&#45;&gt;[root] meta.count&#45;boundary (EachMode fixup)</title>
<path fill="none" stroke="black" d="M605.83,-366.52C645.1,-355.78 707.02,-338.85 754.8,-325.79"/>
<polygon fill="black" stroke="black" points="755.73,-329.16 764.46,-323.14 753.89,-322.41 755.73,-329.16"/>
</g>
<!-- [root] root&#45;&gt;[root] provider[&quot;registry.terraform.io/hashicorp/aws&quot;] (close) -->
<g id="edge20" class="edge">
<title>[root] root&#45;&gt;[root] provider[&quot;registry.terraform.io/hashicorp/aws&quot;] (close)</title>
<path fill="none" stroke="black" d="M532,-365.44C499.78,-354.95 451.6,-339.27 413.26,-326.78"/>
<polygon fill="black" stroke="black" points="414.34,-323.45 403.75,-323.68 412.17,-330.11 414.34,-323.45"/>
</g>
</g>
</svg>
